<svg xmlns="http://www.w3.org/2000/svg" width="300" height="73" viewBox="0 0 300 73" version="1.1">
	<path d="M 29.484 2.384 C 28.625 3.695, 28.052 5.291, 28.211 5.930 C 28.370 6.569, 23.550 13.351, 17.500 20.999 C 9.908 30.598, 5.865 34.921, 4.450 34.953 C 0.303 35.048, -1.653 40.383, 1.500 43 C 3.414 44.588, 3.395 50.894, 1.468 53.441 C -0.610 56.189, -0.354 58.639, 2.200 60.427 C 4.171 61.808, 4.641 61.810, 6.720 60.448 C 8.868 59.040, 9.988 59.228, 21.786 62.970 C 31.595 66.081, 34.758 67.510, 35.516 69.174 C 38.023 74.680, 43.244 73.910, 43.828 67.948 C 44.060 65.584, 46.278 61.935, 51.364 55.549 C 69.352 32.964, 69 33.491, 69 29.108 C 69 26.849, 68.550 25, 68 25 C 67.450 25, 67 26.690, 67 28.755 C 67 32.035, 65.467 34.475, 54.907 48.005 C 39.856 67.289, 40.695 66.963, 21.880 60.847 C 11.674 57.530, 8.985 56.263, 8.119 54.362 C 7.527 53.063, 6.583 52, 6.021 52 C 5.460 52, 5 50.308, 5 48.241 C 5 41.924, 6.749 41.680, 20.747 46.041 C 34.394 50.292, 35 50.566, 35 52.492 C 35 55.339, 42.886 55.525, 43.081 52.683 C 43.126 52.032, 43.261 50.375, 43.381 49 C 43.619 46.267, 66.644 17, 68.555 17 C 69.179 17, 70.506 16.098, 71.504 14.996 C 74.115 12.110, 72.187 8, 68.221 8 C 66.670 8, 64.973 8.426, 64.450 8.947 C 63.105 10.287, 39.032 4.196, 36.436 1.859 C 33.647 -0.652, 31.360 -0.479, 29.484 2.384 M 36 7.500 C 35.315 8.325, 33.573 9.009, 32.128 9.020 C 29.964 9.036, 27.578 11.434, 18.623 22.594 C 4.900 39.695, 4.796 39.094, 22.412 44.493 C 32.120 47.468, 35.311 48.089, 36.219 47.181 C 36.869 46.531, 38.344 46, 39.497 46 C 40.991 46, 44.963 41.831, 53.315 31.496 C 63.197 19.269, 64.938 16.603, 64.412 14.507 C 63.751 11.870, 64.223 12.059, 48.333 8.057 C 38.580 5.600, 37.613 5.557, 36 7.500 M 30.558 13.907 C 30.249 14.405, 30.898 14.578, 31.999 14.290 C 34.334 13.679, 34.629 13, 32.559 13 C 31.766 13, 30.866 13.408, 30.558 13.907 M 28.459 17.067 C 28.096 17.653, 28.014 18.348, 28.276 18.610 C 28.538 18.872, 29.019 18.392, 29.345 17.543 C 30.021 15.781, 29.445 15.471, 28.459 17.067 M 52.429 19.927 C 52.429 20.986, 52.782 21.635, 53.214 21.368 C 53.646 21.100, 54 20.234, 54 19.441 C 54 18.648, 53.646 18, 53.214 18 C 52.782 18, 52.429 18.867, 52.429 19.927 M 212.667 19.667 C 212.300 20.033, 212 22.520, 212 25.192 L 212 30.051 208.879 28.437 C 204.604 26.227, 199.791 27.271, 196.560 31.111 C 194.494 33.567, 194 35.212, 194 39.642 C 194 45.652, 195.106 48.586, 198.367 51.228 C 201.034 53.388, 206.844 53.498, 209.777 51.443 C 211.789 50.034, 212 50.034, 212 51.443 C 212 52.593, 213.046 53, 216 53 L 220 53 220 36 L 220 19 216.667 19 C 214.833 19, 213.033 19.300, 212.667 19.667 M 94 21.013 C 86.143 22.360, 81.997 27.938, 82.004 37.151 C 82.010 46.808, 88.060 52.993, 97.500 52.993 C 106.188 52.993, 112.988 46.742, 112.996 38.750 L 113 35 104.434 35 L 95.867 35 96.184 37.750 C 96.475 40.279, 96.891 40.525, 101.368 40.810 L 106.237 41.119 103.944 43.560 C 99.322 48.480, 90.506 45.602, 89.978 39 C 89.593 34.175, 90.018 32.358, 92.039 30.189 C 94.678 27.356, 100.020 27.260, 102.500 30 C 104.418 32.120, 110.397 32.785, 111.499 31.002 C 112.326 29.663, 109.288 24.663, 106.634 22.994 C 103.709 21.156, 98.203 20.293, 94 21.013 M 145.225 36.750 L 145.500 52.500 154.500 52.500 C 163.433 52.500, 163.500 52.481, 163.500 50 C 163.500 47.733, 163.033 47.453, 158.500 47 L 153.500 46.500 153.220 33.750 L 152.940 21 148.945 21 L 144.949 21 145.225 36.750 M 122.299 28.569 C 117.861 30.834, 115.777 34.450, 115.693 40.031 C 115.563 48.623, 121.253 53.614, 130.198 52.755 C 136.104 52.188, 139.575 49.291, 141.090 43.666 C 142.410 38.763, 140.191 32.011, 136.456 29.563 C 132.725 27.118, 126.058 26.650, 122.299 28.569 M 172.198 28.617 C 170.382 29.543, 168.245 31.560, 167.448 33.100 C 165.782 36.323, 165.555 42.701, 166.975 46.434 C 168.987 51.727, 178.671 54.770, 184.316 51.883 C 186.915 50.554, 189.947 47.002, 189.978 45.250 C 190.010 43.436, 182.540 43.644, 181 45.500 C 179.198 47.671, 176.354 47.342, 174.532 44.750 L 172.951 42.500 181.725 42 L 190.500 41.500 190.377 37.646 C 190.121 29.657, 180.011 24.636, 172.198 28.617 M 229.381 28.858 C 222.329 33.274, 222.233 46.548, 229.217 51.439 C 232.100 53.459, 237.409 53.434, 240.535 51.385 C 242.895 49.839, 243 49.863, 243 51.951 C 243 56.016, 241.175 58, 237.433 58 C 235.248 58, 233.721 57.438, 233.362 56.500 C 232.984 55.516, 231.423 55, 228.826 55 C 225.187 55, 224.920 55.183, 225.535 57.250 C 226.827 61.587, 230.493 64.245, 235.899 64.764 C 241.949 65.346, 246.217 63.807, 248.701 60.149 C 250.185 57.963, 250.560 54.919, 250.842 42.750 L 251.183 28 247.092 28 C 243.951 28, 243 28.385, 243 29.655 C 243 31.180, 242.852 31.176, 241.124 29.612 C 238.161 26.931, 232.988 26.599, 229.381 28.858 M 261.207 28.615 C 253.365 32.607, 252.202 44.626, 259.096 50.427 C 264.565 55.030, 275.195 53.256, 277.915 47.288 C 279.425 43.973, 279.448 44, 275.122 44 C 272.896 44, 270.715 44.639, 270 45.500 C 268.386 47.444, 265.556 47.413, 263.571 45.429 C 260.724 42.581, 261.903 42, 270.531 42 C 280.251 42, 281.142 41.287, 278.871 35.320 C 276.237 28.399, 267.869 25.223, 261.207 28.615 M 296.352 27.993 C 295.171 28.470, 293.907 29.341, 293.543 29.930 C 292.573 31.500, 291 31.234, 291 29.500 C 291 28.452, 289.944 28, 287.500 28 L 284 28 284 40.500 L 284 53 287.500 53 L 291 53 291.015 47.250 C 291.034 39.644, 292.624 36.590, 296.773 36.187 C 299.877 35.885, 300 35.704, 300 31.437 C 300 26.780, 299.809 26.599, 296.352 27.993 M 125.576 35.321 C 123.338 36.957, 123.014 42.107, 124.998 44.497 C 126.924 46.818, 131.169 45.979, 132.865 42.943 C 134.096 40.740, 134.099 39.978, 132.888 37.443 C 131.293 34.106, 128.389 33.264, 125.576 35.321 M 174 36 C 172.996 37.877, 173.240 38, 177.965 38 C 183.078 38, 183.958 37.358, 181.800 35.200 C 179.867 33.267, 175.207 33.745, 174 36 M 203.750 35.080 C 201.695 36.277, 201.319 42.919, 203.200 44.800 C 204.747 46.347, 209.253 46.347, 210.800 44.800 C 212.622 42.978, 212.247 37.534, 210.171 35.655 C 208.091 33.772, 206.275 33.610, 203.750 35.080 M 233.655 35.829 C 230.160 39.691, 232.554 46, 237.515 46 C 240.069 46, 243 42.676, 243 39.777 C 243 37.456, 239.504 34, 237.155 34 C 236.140 34, 234.565 34.823, 233.655 35.829 M 263 36 C 261.996 37.877, 262.240 38, 266.965 38 C 272.078 38, 272.958 37.358, 270.800 35.200 C 268.867 33.267, 264.207 33.745, 263 36" stroke="none" fill="black" fill-rule="evenodd"/>
</svg>